<?xml version="1.0" encoding="UTF-8" standalone="no"?>
<svg
   xmlns:dc="http://purl.org/dc/elements/1.1/"
   xmlns:cc="http://creativecommons.org/ns#"
   xmlns:rdf="http://www.w3.org/1999/02/22-rdf-syntax-ns#"
   xmlns:svg="http://www.w3.org/2000/svg"
   xmlns="http://www.w3.org/2000/svg"
   xmlns:sodipodi="http://sodipodi.sourceforge.net/DTD/sodipodi-0.dtd"
   xmlns:inkscape="http://www.inkscape.org/namespaces/inkscape"
   id="Layer_1"
   data-name="Layer 1"
   viewBox="0 0 1920 1080"
   version="1.1"
   sodipodi:docname="HackMCA Logo.svg"
   width="1920"
   height="1080"
   inkscape:version="1.0.1 (3bc2e813f5, 2020-09-07)">
  <metadata
     id="metadata177">
    <rdf:RDF>
      <cc:Work
         rdf:about="">
        <dc:format>image/svg+xml</dc:format>
        <dc:type
           rdf:resource="http://purl.org/dc/dcmitype/StillImage" />
        <dc:title></dc:title>
      </cc:Work>
    </rdf:RDF>
  </metadata>
  <sodipodi:namedview
     pagecolor="#ffffff"
     bordercolor="#666666"
     borderopacity="1"
     objecttolerance="10"
     gridtolerance="10"
     guidetolerance="10"
     inkscape:pageopacity="0"
     inkscape:pageshadow="2"
     inkscape:window-width="1920"
     inkscape:window-height="2055"
     id="namedview175"
     showgrid="false"
     units="px"
     width="1920mm"
     inkscape:zoom="0.40889996"
     inkscape:cx="812.58129"
     inkscape:cy="437.43184"
     inkscape:window-x="2149"
     inkscape:window-y="570"
     inkscape:window-maximized="0"
     inkscape:current-layer="Layer_1" />
  <defs
     id="defs4">
    <style
       id="style2">
      .cls-1 {
        fill: #231f20;
      }

      .cls-2 {
        fill: #e7b725;
      }

      .cls-3, .cls-4 {
        fill: none;
      }

      .cls-4 {
        stroke: #e7b725;
        stroke-miterlimit: 10;
        stroke-width: 0.5px;
      }
    </style>
  </defs>
  <g
     id="g1086"
     transform="matrix(1.0973254,0,0,1.0973254,-114.85614,-74.435611)">
    <path
       class="cls-1"
       d="m 338.57178,589.69339 h -87.93099 v 90.00585 H 200.55805 V 459.97908 h 50.08274 v 87.50171 h 87.93099 v -87.50171 h 50.08275 v 219.72016 h -50.08275 z"
       id="path6"
       style="stroke-width:7.15468" />
    <path
       class="cls-1"
       d="m 585.12198,679.69924 -16.5273,-52.01451 h -76.98434 l -16.5273,52.01451 h -50.94131 l 76.05423,-219.72016 h 62.17415 l 74.98102,219.72016 z M 530.60334,503.40798 h -1.64558 l -25.25601,83.42354 h 52.87307 z"
       id="path8"
       style="stroke-width:7.15468" />
    <path
       class="cls-1"
       d="m 653.94998,571.37742 c 0,-74.26556 39.9231,-115.40496 102.09725,-115.40496 42.28415,0 69.40038,16.38422 86.28542,51.58523 l -42.92807,21.46403 c -6.00993,-18.31597 -18.24443,-30.55047 -42.92806,-30.55047 -29.40573,0 -48.938,18.88835 -48.938,53.51699 v 35.27256 c 0,34.62864 19.53227,53.51699 48.938,53.51699 a 47.07778,47.07778 0 0 0 45.93303,-32.76842 l 40.9963,22.68032 c -17.7436,33.62699 -45.07447,52.80153 -87.35862,52.80153 -62.17415,0 -102.09725,-37.7767 -102.09725,-112.1138 z"
       id="path10"
       style="stroke-width:7.15468" />
    <path
       class="cls-1"
       d="m 961.60113,583.96965 -30.1212,34.62864 v 61.10095 H 881.39719 V 459.97908 h 50.08274 v 104.52985 h 2.00331 l 32.69688,-42.92807 51.94298,-61.95951 h 56.8081 l -77.55668,90.72131 77.41358,129.35658 h -59.1692 z"
       id="path12"
       style="stroke-width:7.15468" />
    <path
       class="cls-2"
       d="m 1339.6543,573.23763 c 0,-74.3371 39.9946,-115.26186 102.0972,-115.26186 42.3557,0 69.4004,16.38421 86.2854,51.65678 l -42.928,21.46403 c -5.9384,-18.24443 -18.1729,-30.55047 -42.9281,-30.55047 -29.4057,0 -48.938,18.88834 -48.938,53.51699 v 35.27256 c 0,34.62864 19.5323,53.51699 48.938,53.51699 a 47.07778,47.07778 0 0 0 45.933,-32.69688 l 40.9963,22.60878 c -17.1712,33.41235 -44.5736,52.58688 -86.9293,52.58688 -62.5319,-0.0715 -102.5265,-37.84824 -102.5265,-112.1138 z"
       id="path14"
       style="stroke-width:7.15468" />
    <g
       id="g138"
       transform="matrix(7.1546778,0,0,7.1546778,200.41495,310.58941)">
      <rect
         class="cls-2"
         x="195.81"
         y="10.6"
         width="21.83"
         height="2.03"
         id="rect16" />
      <rect
         class="cls-2"
         x="122.18"
         y="10.6"
         width="21.84"
         height="2.03"
         id="rect18" />
      <rect
         class="cls-3"
         x="173.27"
         y="5.6700001"
         width="5.0900002"
         height="2.1700001"
         id="rect20" />
      <polygon
         class="cls-3"
         points="170.31,5.14 172.72,5.14 172.72,3.18 170.31,2.14 "
         id="polygon22" />
      <polygon
         class="cls-3"
         points="173.25,3.4 173.25,5.17 177.37,5.17 "
         id="polygon24" />
      <rect
         class="cls-3"
         x="161.44"
         y="11.43"
         width="5.0900002"
         height="2.1700001"
         id="rect26" />
      <rect
         class="cls-3"
         x="173.27"
         y="11.43"
         width="5.0900002"
         height="2.1700001"
         id="rect28" />
      <polygon
         class="cls-3"
         points="169.5,5.14 169.5,2.19 167.1,3.23 167.08,5.14 "
         id="polygon30" />
      <polygon
         class="cls-3"
         points="162.44,5.17 166.55,5.17 166.55,5.16 166.56,5.16 166.58,3.42 "
         id="polygon32" />
      <rect
         class="cls-3"
         x="170.3"
         y="5.6799998"
         width="2.4200001"
         height="2.1500001"
         id="rect34" />
      <rect
         class="cls-3"
         x="173.27"
         y="8.5500002"
         width="5.0900002"
         height="2.1700001"
         id="rect36" />
      <rect
         class="cls-3"
         x="161.44"
         y="8.5500002"
         width="5.0900002"
         height="2.1700001"
         id="rect38" />
      <rect
         class="cls-3"
         x="167.07001"
         y="5.6799998"
         width="2.4200001"
         height="2.1500001"
         id="rect40" />
      <rect
         class="cls-3"
         x="161.44"
         y="5.6700001"
         width="5.0900002"
         height="2.1700001"
         id="rect42" />
      <rect
         class="cls-2"
         x="167.07001"
         y="5.6799998"
         width="2.4200001"
         height="2.1500001"
         id="rect44" />
      <rect
         class="cls-2"
         x="161.44"
         y="8.5500002"
         width="5.0900002"
         height="2.1700001"
         id="rect46" />
      <polygon
         class="cls-2"
         points="166.58,3.42 162.44,5.17 166.55,5.17 166.55,5.16 166.56,5.16 "
         id="polygon48" />
      <polygon
         class="cls-2"
         points="167.1,3.23 167.08,5.14 169.5,5.14 169.5,2.19 "
         id="polygon50" />
      <rect
         class="cls-2"
         x="161.44"
         y="11.43"
         width="5.0900002"
         height="2.1700001"
         id="rect52" />
      <rect
         class="cls-2"
         x="161.44"
         y="5.6700001"
         width="5.0900002"
         height="2.1700001"
         id="rect54" />
      <rect
         class="cls-2"
         x="170.3"
         y="5.6799998"
         width="2.4200001"
         height="2.1500001"
         id="rect56" />
      <polygon
         class="cls-2"
         points="170.31,2.14 170.31,5.14 172.72,5.14 172.72,3.18 "
         id="polygon58" />
      <rect
         class="cls-2"
         x="173.27"
         y="5.6700001"
         width="5.0900002"
         height="2.1700001"
         id="rect60" />
      <rect
         class="cls-2"
         x="173.27"
         y="8.5500002"
         width="5.0900002"
         height="2.1700001"
         id="rect62" />
      <polygon
         class="cls-2"
         points="177.37,5.17 173.25,3.4 173.25,5.17 "
         id="polygon64" />
      <rect
         class="cls-2"
         x="173.27"
         y="11.43"
         width="5.0900002"
         height="2.1700001"
         id="rect66" />
      <rect
         class="cls-3"
         x="211.42999"
         y="19.6"
         width="2.5999999"
         height="1.24"
         id="rect68" />
      <rect
         class="cls-3"
         x="211.42999"
         y="17.82"
         width="2.5999999"
         height="1.27"
         id="rect70" />
      <rect
         class="cls-3"
         x="205.19"
         y="17.82"
         width="2.5999999"
         height="1.27"
         id="rect72" />
      <rect
         class="cls-3"
         x="214.53999"
         y="17.82"
         width="2.5999999"
         height="1.27"
         id="rect74" />
      <rect
         class="cls-3"
         x="211.42999"
         y="21.370001"
         width="2.5999999"
         height="4.2399998"
         id="rect76" />
      <rect
         class="cls-3"
         x="214.53999"
         y="21.370001"
         width="2.5999999"
         height="4.2399998"
         id="rect78" />
      <rect
         class="cls-3"
         x="214.53999"
         y="19.6"
         width="2.5999999"
         height="1.24"
         id="rect80" />
      <polygon
         class="cls-2"
         points="213.07,25.6 213.07,21.37 211.22,21.37 212.66,25.6 "
         id="polygon82" />
      <polygon
         class="cls-2"
         points="211.04,20.84 213.07,20.84 213.07,19.6 210.61,19.6 "
         id="polygon84" />
      <rect
         class="cls-2"
         x="210.46001"
         y="17.82"
         width="2.5999999"
         height="1.27"
         id="rect86" />
      <rect
         class="cls-2"
         x="213.58"
         y="17.82"
         width="2.5999999"
         height="1.27"
         id="rect88" />
      <rect
         class="cls-2"
         x="213.58"
         y="21.370001"
         width="2.5999999"
         height="4.2399998"
         id="rect90" />
      <rect
         class="cls-2"
         x="213.58"
         y="19.6"
         width="2.5999999"
         height="1.24"
         id="rect92" />
      <rect
         class="cls-3"
         x="139.28999"
         y="19.709999"
         width="2.5999999"
         height="1.24"
         id="rect94" />
      <rect
         class="cls-3"
         x="136.17"
         y="19.709999"
         width="2.5999999"
         height="1.24"
         id="rect96" />
      <rect
         class="cls-3"
         x="139.28999"
         y="17.93"
         width="2.5999999"
         height="1.27"
         id="rect98" />
      <rect
         class="cls-3"
         x="133.05"
         y="17.93"
         width="2.5999999"
         height="1.27"
         id="rect100" />
      <rect
         class="cls-3"
         x="136.17"
         y="17.93"
         width="2.5999999"
         height="1.27"
         id="rect102" />
      <rect
         class="cls-3"
         x="142.41"
         y="17.93"
         width="2.5999999"
         height="1.27"
         id="rect104" />
      <rect
         class="cls-3"
         x="136.17"
         y="21.48"
         width="2.5999999"
         height="4.2399998"
         id="rect106" />
      <rect
         class="cls-3"
         x="139.28999"
         y="21.48"
         width="2.5999999"
         height="4.2399998"
         id="rect108" />
      <polygon
         class="cls-2"
         points="139.29,21.48 139.29,24.93 141.16,21.48 "
         id="polygon110" />
      <rect
         class="cls-2"
         x="136.17"
         y="17.93"
         width="2.5999999"
         height="1.27"
         id="rect112" />
      <polygon
         class="cls-2"
         points="142.41,17.93 142.41,19.18 143.08,17.93 "
         id="polygon114" />
      <rect
         class="cls-2"
         x="136.17"
         y="19.709999"
         width="2.5999999"
         height="1.24"
         id="rect116" />
      <rect
         class="cls-2"
         x="139.28999"
         y="17.93"
         width="2.5999999"
         height="1.27"
         id="rect118" />
      <polygon
         class="cls-2"
         points="141.89,19.71 139.29,19.71 139.29,20.95 141.44,20.95 141.89,20.13 "
         id="polygon120" />
      <polygon
         class="cls-2"
         points="138.77,21.48 136.17,21.48 136.17,25.57 136.25,25.72 138.77,25.72 "
         id="polygon122" />
      <polygon
         class="cls-2"
         points="135.65,19.71 133.05,19.71 133.05,19.89 133.64,20.95 135.65,20.95 "
         id="polygon124" />
      <polygon
         class="cls-2"
         points="138.59,26.22 136.53,26.22 137.56,28.11 "
         id="polygon126" />
      <polygon
         class="cls-2"
         points="131.98,17.93 132.53,18.95 132.53,17.93 "
         id="polygon128" />
      <polygon
         class="cls-2"
         points="135.65,21.48 133.93,21.48 135.65,24.63 "
         id="polygon130" />
      <rect
         class="cls-2"
         x="133.05"
         y="17.93"
         width="2.5999999"
         height="1.27"
         id="rect132" />
      <rect
         class="cls-2"
         x="195.81"
         y="10.59"
         width="21.84"
         height="2.03"
         id="rect134" />
      <path
         class="cls-2"
         d="m 225.27,18.81 h -22.33 v -4.57 l -14.89,-0.13 v -3.9 l -10.5,-4.53 -10.47,4.53 v 3.9 l -14.93,0.13 v 4.57 H 129.8 v 4.31 h 23.31 L 163.2,23 h 61.09 v 8.79 h -3.85 l 2.43,7.1 2.42,7.1 z m -70.53,-1.53 h -1 v -1 h 1 z m 2.87,0 h -1 v -1 h 1 z m 2.85,0 h -1 v -1 h 1 z m 2.84,0 h -1 v -1 h 1 z m 2.85,0 h -1 v -1 h 1 z m 20.31,-3.58 v 6.05 h -6.09 V 14 h -5.74 v 5.75 h -6.09 v -8.9 h 0.18 l 8.85,-3.74 0.18,0.07 v 0 l 2.94,1.25 c 0,0 0,0 0,0 l 5.57,2.39 h 0.17 z m 3.54,3.6 h -1 v -1 h 1 z m 2.84,0 h -1 v -1 h 1 z m 2.85,0 h -1 v -1 h 1 z m 2.87,0 h -1 v -1 h 1 z m 2.88,0 h -1 v -1 h 1 z"
         transform="translate(-7.61,-5.68)"
         id="path136" />
    </g>
    <g
       id="g152"
       transform="matrix(7.1546778,0,0,7.1546778,200.41495,310.58941)">
      <line
         class="cls-4"
         x1="178.11"
         y1="33.060001"
         x2="186.10001"
         y2="29.1"
         id="line140" />
      <line
         class="cls-4"
         x1="186.10001"
         y1="43.349998"
         x2="178.17"
         y2="39.43"
         id="line142" />
      <g
         id="g150">
        <path
           class="cls-4"
           d="m 191.43,38 a 12.55,12.55 0 0 1 -0.05,7.76"
           transform="translate(-7.61,-5.68)"
           id="path144" />
        <polygon
           class="cls-2"
           points="183.52,31.51 183.43,32.93 183.88,32.53 184.48,32.57 "
           id="polygon146" />
        <polygon
           class="cls-2"
           points="183.46,40.95 183.38,39.52 183.82,39.93 184.43,39.9 "
           id="polygon148" />
      </g>
    </g>
    <g
       id="g168"
       transform="matrix(7.1546778,0,0,7.1546778,200.41495,310.58941)">
      <path
         class="cls-2"
         d="m 158.88,35.8 h 1.63 v -0.42 a 1.08,1.08 0 0 1 -1,-1.08 1.1,1.1 0 0 1 1,-1.08 V 32.8 h -1.63 z"
         transform="translate(-7.61,-5.68)"
         id="path154" />
      <polygon
         class="cls-2"
         points="152.9,20.88 145.42,20.88 137.61,35.27 137.52,35.27 129.62,20.88 122.18,20.88 122.18,51.59 128.78,51.59 128.78,31.13 128.92,31.13 131.37,35.97 137.52,46.8 143.8,35.93 146.16,31.44 146.3,31.44 146.3,51.59 152.9,51.59 152.9,50.74 150.78,50.74 150.78,46.73 152.9,46.73 152.9,45.71 150.78,45.71 150.78,41.7 152.9,41.7 152.9,40.68 150.78,40.68 150.78,36.67 152.9,36.67 152.9,35.65 150.78,35.65 150.78,31.65 152.9,31.65 152.9,30.63 150.78,30.63 150.78,26.62 152.9,26.62 152.9,25.6 150.78,25.6 150.78,21.59 152.9,21.59 "
         id="polygon156" />
      <path
         class="cls-2"
         d="m 158.88,30.78 h 1.63 v -0.43 a 1.08,1.08 0 0 1 -1,-1.08 1.1,1.1 0 0 1 1,-1.08 v -0.42 h -1.63 z"
         transform="translate(-7.61,-5.68)"
         id="path158" />
      <path
         class="cls-2"
         d="m 158.88,40.83 h 1.63 v -0.42 a 1.08,1.08 0 0 1 0,-2.16 v -0.42 h -1.63 z"
         transform="translate(-7.61,-5.68)"
         id="path160" />
      <path
         class="cls-2"
         d="m 158.88,55.92 h 1.63 v -0.43 a 1.08,1.08 0 0 1 -1,-1.08 1.1,1.1 0 0 1 1,-1.08 v -0.42 h -1.63 z"
         transform="translate(-7.61,-5.68)"
         id="path162" />
      <path
         class="cls-2"
         d="m 158.88,45.86 h 1.63 v -0.42 a 1.1,1.1 0 0 1 -1,-1.08 1.08,1.08 0 0 1 1,-1.08 v -0.43 h -1.63 z"
         transform="translate(-7.61,-5.68)"
         id="path164" />
      <path
         class="cls-2"
         d="m 158.88,50.89 h 1.63 v -0.42 a 1.1,1.1 0 0 1 -1,-1.08 1.08,1.08 0 0 1 1,-1.08 v -0.43 h -1.63 z"
         transform="translate(-7.61,-5.68)"
         id="path166" />
    </g>
    <path
       class="cls-2"
       d="M 1614.3939,480.6561"
       id="path170"
       style="stroke-width:7.15468" />
    <path
       class="cls-2"
       d="m 1683.7227,459.97908 h -62.1741 l -1.6456,4.86518 18.5306,6.36767 -1.0732,3.14805 -18.5306,-6.36766 -3.2196,9.44418 7.5839,2.57568 -1.0732,3.14806 -7.5839,-2.57569 -3.1481,9.08645 11.376,3.93507 -1.1448,3.14806 -11.3044,-3.93508 -3.148,9.15799 7.5124,2.64723 -1.0732,3.14806 -7.584,-2.64723 -3.1481,9.15799 18.6022,6.43921 -1.1447,3.07651 -18.5307,-6.36766 -3.4342,8.8718 7.5124,2.57568 -1.0732,3.14806 -7.5839,-2.57569 -3.1481,9.15799 11.3759,3.86353 -1.0732,3.14806 -11.0897,-3.79198 -3.1481,9.08644 7.584,2.64723 -1.0732,3.14806 -7.584,-2.64723 -3.2196,9.22953 18.6022,6.43921 -1.0732,3.14806 -18.6022,-6.43921 -3.148,9.15799 7.5839,2.64723 -1.0732,3.14805 -7.5839,-2.64723 -3.2197,9.15799 11.4475,3.93507 -1.0732,3.14806 -11.4475,-3.93507 -3.148,9.15799 7.6555,2.57568 -1.1448,3.14806 -7.5839,-2.57568 -3.1481,9.08644 18.6022,6.43921 -1.0732,3.14805 -18.6737,-6.43921 -3.1481,9.15799 7.6555,2.64723 -1.0732,3.14806 -7.6555,-2.86187 -3.148,9.15799 11.4474,3.93507 -1.0732,3.14806 -11.4474,-3.93507 -3.2196,9.15798 7.6555,2.64723 -1.0732,3.14806 -7.6555,-2.64723 -3.1481,9.15799 18.6737,6.43921 -1.0732,3.14806 -18.6737,-6.43921 -5.2229,15.02482 h 50.8697 l 16.2412,-51.94296 h 77.0558 l 16.5273,52.22915 h 52.2292 z m -58.8114,126.85244 25.3991,-83.42354 h 1.7171 l 25.7568,83.42354 z"
       id="path172"
       style="stroke-width:7.15468" />
  </g>
</svg>
