<?xml version="1.0" encoding="UTF-8" standalone="no"?>
<svg
   xmlns:dc="http://purl.org/dc/elements/1.1/"
   xmlns:cc="http://creativecommons.org/ns#"
   xmlns:rdf="http://www.w3.org/1999/02/22-rdf-syntax-ns#"
   xmlns:svg="http://www.w3.org/2000/svg"
   xmlns="http://www.w3.org/2000/svg"
   xmlns:sodipodi="http://sodipodi.sourceforge.net/DTD/sodipodi-0.dtd"
   xmlns:inkscape="http://www.inkscape.org/namespaces/inkscape"
   id="Layer_1"
   data-name="Layer 1"
   viewBox="0 0 1920 720.00002"
   version="1.1"
   sodipodi:docname="hackmca-logo.svg"
   width="1920"
   height="720"
   inkscape:version="1.0.1 (3bc2e813f5, 2020-09-07)">
  <metadata
     id="metadata177">
    <rdf:RDF>
      <cc:Work
         rdf:about="">
        <dc:format>image/svg+xml</dc:format>
        <dc:type
           rdf:resource="http://purl.org/dc/dcmitype/StillImage" />
        <dc:title></dc:title>
      </cc:Work>
    </rdf:RDF>
  </metadata>
  <sodipodi:namedview
     pagecolor="#ffffff"
     bordercolor="#666666"
     borderopacity="1"
     objecttolerance="10"
     gridtolerance="10"
     guidetolerance="10"
     inkscape:pageopacity="0"
     inkscape:pageshadow="2"
     inkscape:window-width="3840"
     inkscape:window-height="2066"
     id="namedview175"
     showgrid="false"
     inkscape:zoom="0.40889996"
     inkscape:cx="-308.15548"
     inkscape:cy="373.81528"
     inkscape:window-x="2149"
     inkscape:window-y="559"
     inkscape:window-maximized="1"
     inkscape:current-layer="Layer_1" />
  <defs
     id="defs4">
    <style
       id="style2">
      .cls-1 {
        fill: #231f20;
      }

      .cls-2 {
        fill: #e7b725;
      }

      .cls-3, .cls-4 {
        fill: none;
      }

      .cls-4 {
        stroke: #e7b725;
        stroke-miterlimit: 10;
        stroke-width: 0.5px;
      }
    </style>
  </defs>
  <g
     id="g1086"
     transform="matrix(0.6996038,0,0,0.6996038,883.81664,269.67738)">
    <path
       class="cls-1"
       d="m -837.92453,161.68396 h -129.89242 v 132.95741 h -73.98265 V -29.931133 h 73.98265 V 99.327145 h 129.89242 V -29.931133 h 73.98266 V 294.64137 h -73.98266 z"
       id="path6"
       style="stroke-width:10.569" />
    <path
       class="cls-1"
       d="m -473.71846,294.64137 -24.41428,-76.83628 h -113.72192 l -24.41427,76.83628 h -75.25094 l 112.34796,-324.572503 h 91.84419 L -396.56511,294.64137 Z M -554.25387,34.222403 h -2.43086 l -37.3084,123.233977 h 78.10455 z"
       id="path8"
       style="stroke-width:10.569" />
    <path
       class="cls-1"
       d="m -372.04514,134.62744 c 0,-109.705714 58.97475,-170.477186 150.81894,-170.477186 62.4625,0 102.51883,24.202899 127.461553,76.202141 L -157.17836,72.05925 c -8.87792,-27.056516 -26.95082,-45.129423 -63.41371,-45.129423 -43.43839,0 -72.29163,27.902032 -72.29163,79.055753 v 52.10494 c 0,51.15372 28.85324,79.05575 72.29163,79.05575 a 69.543702,69.543702 0 0 0 67.85267,-48.40579 l 60.560095,33.50357 c -26.210995,49.67408 -66.584395,77.99887 -129.046895,77.99887 -91.84419,0 -150.81894,-55.80407 -150.81894,-165.61548 z"
       id="path10"
       style="stroke-width:10.569" />
    <path
       class="cls-1"
       d="M 82.419776,153.2288 37.92449,204.38252 v 90.25885 H -36.058171 V -29.931133 H 37.92449 V 124.48125 h 2.959306 L 89.183905,61.06754 165.91449,-30.459581 h 83.91748 L 135.26453,103.55473 249.62059,294.64137 h -87.40523 z"
       id="path12"
       style="stroke-width:10.569" />
    <path
       class="cls-2"
       d="m 640.88318,137.37537 c 0,-109.811406 59.08044,-170.26581 150.81894,-170.26581 62.56819,0 102.51883,24.2028997 127.46156,76.307831 l -63.41371,31.706855 c -8.77223,-26.950827 -26.84514,-45.129423 -63.41371,-45.129423 -43.43839,0 -72.29163,27.902032 -72.29163,79.055757 v 52.10493 c 0,51.15373 28.85324,79.05576 72.29163,79.05576 a 69.543702,69.543702 0 0 0 67.85267,-48.30011 l 60.56009,33.39789 c -25.36549,49.357 -65.84457,77.68179 -128.41276,77.68179 -92.37264,-0.10569 -151.45308,-55.90975 -151.45308,-165.61547 z"
       id="path14"
       style="stroke-width:10.569" />
    <g
       id="g138"
       transform="matrix(10.568952,0,0,10.568952,-1042.011,-250.61084)">
      <rect
         class="cls-2"
         x="195.81"
         y="10.6"
         width="21.83"
         height="2.03"
         id="rect16" />
      <rect
         class="cls-2"
         x="122.18"
         y="10.6"
         width="21.84"
         height="2.03"
         id="rect18" />
      <rect
         class="cls-3"
         x="173.27"
         y="5.6700001"
         width="5.0900002"
         height="2.1700001"
         id="rect20" />
      <polygon
         class="cls-3"
         points="170.31,2.14 170.31,5.14 172.72,5.14 172.72,3.18 "
         id="polygon22" />
      <polygon
         class="cls-3"
         points="177.37,5.17 173.25,3.4 173.25,5.17 "
         id="polygon24" />
      <rect
         class="cls-3"
         x="161.44"
         y="11.43"
         width="5.0900002"
         height="2.1700001"
         id="rect26" />
      <rect
         class="cls-3"
         x="173.27"
         y="11.43"
         width="5.0900002"
         height="2.1700001"
         id="rect28" />
      <polygon
         class="cls-3"
         points="167.08,5.14 169.5,5.14 169.5,2.19 167.1,3.23 "
         id="polygon30" />
      <polygon
         class="cls-3"
         points="166.55,5.17 166.55,5.16 166.56,5.16 166.58,3.42 162.44,5.17 "
         id="polygon32" />
      <rect
         class="cls-3"
         x="170.3"
         y="5.6799998"
         width="2.4200001"
         height="2.1500001"
         id="rect34" />
      <rect
         class="cls-3"
         x="173.27"
         y="8.5500002"
         width="5.0900002"
         height="2.1700001"
         id="rect36" />
      <rect
         class="cls-3"
         x="161.44"
         y="8.5500002"
         width="5.0900002"
         height="2.1700001"
         id="rect38" />
      <rect
         class="cls-3"
         x="167.07001"
         y="5.6799998"
         width="2.4200001"
         height="2.1500001"
         id="rect40" />
      <rect
         class="cls-3"
         x="161.44"
         y="5.6700001"
         width="5.0900002"
         height="2.1700001"
         id="rect42" />
      <rect
         class="cls-2"
         x="167.07001"
         y="5.6799998"
         width="2.4200001"
         height="2.1500001"
         id="rect44" />
      <rect
         class="cls-2"
         x="161.44"
         y="8.5500002"
         width="5.0900002"
         height="2.1700001"
         id="rect46" />
      <polygon
         class="cls-2"
         points="162.44,5.17 166.55,5.17 166.55,5.16 166.56,5.16 166.58,3.42 "
         id="polygon48" />
      <polygon
         class="cls-2"
         points="169.5,2.19 167.1,3.23 167.08,5.14 169.5,5.14 "
         id="polygon50" />
      <rect
         class="cls-2"
         x="161.44"
         y="11.43"
         width="5.0900002"
         height="2.1700001"
         id="rect52" />
      <rect
         class="cls-2"
         x="161.44"
         y="5.6700001"
         width="5.0900002"
         height="2.1700001"
         id="rect54" />
      <rect
         class="cls-2"
         x="170.3"
         y="5.6799998"
         width="2.4200001"
         height="2.1500001"
         id="rect56" />
      <polygon
         class="cls-2"
         points="172.72,3.18 170.31,2.14 170.31,5.14 172.72,5.14 "
         id="polygon58" />
      <rect
         class="cls-2"
         x="173.27"
         y="5.6700001"
         width="5.0900002"
         height="2.1700001"
         id="rect60" />
      <rect
         class="cls-2"
         x="173.27"
         y="8.5500002"
         width="5.0900002"
         height="2.1700001"
         id="rect62" />
      <polygon
         class="cls-2"
         points="173.25,5.17 177.37,5.17 173.25,3.4 "
         id="polygon64" />
      <rect
         class="cls-2"
         x="173.27"
         y="11.43"
         width="5.0900002"
         height="2.1700001"
         id="rect66" />
      <rect
         class="cls-3"
         x="211.42999"
         y="19.6"
         width="2.5999999"
         height="1.24"
         id="rect68" />
      <rect
         class="cls-3"
         x="211.42999"
         y="17.82"
         width="2.5999999"
         height="1.27"
         id="rect70" />
      <rect
         class="cls-3"
         x="205.19"
         y="17.82"
         width="2.5999999"
         height="1.27"
         id="rect72" />
      <rect
         class="cls-3"
         x="214.53999"
         y="17.82"
         width="2.5999999"
         height="1.27"
         id="rect74" />
      <rect
         class="cls-3"
         x="211.42999"
         y="21.370001"
         width="2.5999999"
         height="4.2399998"
         id="rect76" />
      <rect
         class="cls-3"
         x="214.53999"
         y="21.370001"
         width="2.5999999"
         height="4.2399998"
         id="rect78" />
      <rect
         class="cls-3"
         x="214.53999"
         y="19.6"
         width="2.5999999"
         height="1.24"
         id="rect80" />
      <polygon
         class="cls-2"
         points="212.66,25.6 213.07,25.6 213.07,21.37 211.22,21.37 "
         id="polygon82" />
      <polygon
         class="cls-2"
         points="210.61,19.6 211.04,20.84 213.07,20.84 213.07,19.6 "
         id="polygon84" />
      <rect
         class="cls-2"
         x="210.46001"
         y="17.82"
         width="2.5999999"
         height="1.27"
         id="rect86" />
      <rect
         class="cls-2"
         x="213.58"
         y="17.82"
         width="2.5999999"
         height="1.27"
         id="rect88" />
      <rect
         class="cls-2"
         x="213.58"
         y="21.370001"
         width="2.5999999"
         height="4.2399998"
         id="rect90" />
      <rect
         class="cls-2"
         x="213.58"
         y="19.6"
         width="2.5999999"
         height="1.24"
         id="rect92" />
      <rect
         class="cls-3"
         x="139.28999"
         y="19.709999"
         width="2.5999999"
         height="1.24"
         id="rect94" />
      <rect
         class="cls-3"
         x="136.17"
         y="19.709999"
         width="2.5999999"
         height="1.24"
         id="rect96" />
      <rect
         class="cls-3"
         x="139.28999"
         y="17.93"
         width="2.5999999"
         height="1.27"
         id="rect98" />
      <rect
         class="cls-3"
         x="133.05"
         y="17.93"
         width="2.5999999"
         height="1.27"
         id="rect100" />
      <rect
         class="cls-3"
         x="136.17"
         y="17.93"
         width="2.5999999"
         height="1.27"
         id="rect102" />
      <rect
         class="cls-3"
         x="142.41"
         y="17.93"
         width="2.5999999"
         height="1.27"
         id="rect104" />
      <rect
         class="cls-3"
         x="136.17"
         y="21.48"
         width="2.5999999"
         height="4.2399998"
         id="rect106" />
      <rect
         class="cls-3"
         x="139.28999"
         y="21.48"
         width="2.5999999"
         height="4.2399998"
         id="rect108" />
      <polygon
         class="cls-2"
         points="141.16,21.48 139.29,21.48 139.29,24.93 "
         id="polygon110" />
      <rect
         class="cls-2"
         x="136.17"
         y="17.93"
         width="2.5999999"
         height="1.27"
         id="rect112" />
      <polygon
         class="cls-2"
         points="143.08,17.93 142.41,17.93 142.41,19.18 "
         id="polygon114" />
      <rect
         class="cls-2"
         x="136.17"
         y="19.709999"
         width="2.5999999"
         height="1.24"
         id="rect116" />
      <rect
         class="cls-2"
         x="139.28999"
         y="17.93"
         width="2.5999999"
         height="1.27"
         id="rect118" />
      <polygon
         class="cls-2"
         points="139.29,19.71 139.29,20.95 141.44,20.95 141.89,20.13 141.89,19.71 "
         id="polygon120" />
      <polygon
         class="cls-2"
         points="136.17,21.48 136.17,25.57 136.25,25.72 138.77,25.72 138.77,21.48 "
         id="polygon122" />
      <polygon
         class="cls-2"
         points="133.05,19.71 133.05,19.89 133.64,20.95 135.65,20.95 135.65,19.71 "
         id="polygon124" />
      <polygon
         class="cls-2"
         points="137.56,28.11 138.59,26.22 136.53,26.22 "
         id="polygon126" />
      <polygon
         class="cls-2"
         points="132.53,17.93 131.98,17.93 132.53,18.95 "
         id="polygon128" />
      <polygon
         class="cls-2"
         points="135.65,24.63 135.65,21.48 133.93,21.48 "
         id="polygon130" />
      <rect
         class="cls-2"
         x="133.05"
         y="17.93"
         width="2.5999999"
         height="1.27"
         id="rect132" />
      <rect
         class="cls-2"
         x="195.81"
         y="10.59"
         width="21.84"
         height="2.03"
         id="rect134" />
      <path
         class="cls-2"
         d="m 225.27,18.81 h -22.33 v -4.57 l -14.89,-0.13 v -3.9 l -10.5,-4.53 -10.47,4.53 v 3.9 l -14.93,0.13 v 4.57 H 129.8 v 4.31 h 23.31 L 163.2,23 h 61.09 v 8.79 h -3.85 l 2.43,7.1 2.42,7.1 z m -70.53,-1.53 h -1 v -1 h 1 z m 2.87,0 h -1 v -1 h 1 z m 2.85,0 h -1 v -1 h 1 z m 2.84,0 h -1 v -1 h 1 z m 2.85,0 h -1 v -1 h 1 z m 20.31,-3.58 v 6.05 h -6.09 V 14 h -5.74 v 5.75 h -6.09 v -8.9 h 0.18 l 8.85,-3.74 0.18,0.07 v 0 l 2.94,1.25 c 0,0 0,0 0,0 l 5.57,2.39 h 0.17 z m 3.54,3.6 h -1 v -1 h 1 z m 2.84,0 h -1 v -1 h 1 z m 2.85,0 h -1 v -1 h 1 z m 2.87,0 h -1 v -1 h 1 z m 2.88,0 h -1 v -1 h 1 z"
         transform="translate(-7.61,-5.68)"
         id="path136" />
    </g>
    <g
       id="g152"
       transform="matrix(10.568952,0,0,10.568952,-1042.011,-250.61084)">
      <line
         class="cls-4"
         x1="178.11"
         y1="33.060001"
         x2="186.10001"
         y2="29.1"
         id="line140" />
      <line
         class="cls-4"
         x1="186.10001"
         y1="43.349998"
         x2="178.17"
         y2="39.43"
         id="line142" />
      <g
         id="g150">
        <path
           class="cls-4"
           d="m 191.43,38 a 12.55,12.55 0 0 1 -0.05,7.76"
           transform="translate(-7.61,-5.68)"
           id="path144" />
        <polygon
           class="cls-2"
           points="184.48,32.57 183.52,31.51 183.43,32.93 183.88,32.53 "
           id="polygon146" />
        <polygon
           class="cls-2"
           points="184.43,39.9 183.46,40.95 183.38,39.52 183.82,39.93 "
           id="polygon148" />
      </g>
    </g>
    <g
       id="g168"
       transform="matrix(10.568952,0,0,10.568952,-1042.011,-250.61084)">
      <path
         class="cls-2"
         d="m 158.88,35.8 h 1.63 v -0.42 a 1.08,1.08 0 0 1 -1,-1.08 1.1,1.1 0 0 1 1,-1.08 V 32.8 h -1.63 z"
         transform="translate(-7.61,-5.68)"
         id="path154" />
      <polygon
         class="cls-2"
         points="137.52,46.8 143.8,35.93 146.16,31.44 146.3,31.44 146.3,51.59 152.9,51.59 152.9,50.74 150.78,50.74 150.78,46.73 152.9,46.73 152.9,45.71 150.78,45.71 150.78,41.7 152.9,41.7 152.9,40.68 150.78,40.68 150.78,36.67 152.9,36.67 152.9,35.65 150.78,35.65 150.78,31.65 152.9,31.65 152.9,30.63 150.78,30.63 150.78,26.62 152.9,26.62 152.9,25.6 150.78,25.6 150.78,21.59 152.9,21.59 152.9,20.88 145.42,20.88 137.61,35.27 137.52,35.27 129.62,20.88 122.18,20.88 122.18,51.59 128.78,51.59 128.78,31.13 128.92,31.13 131.37,35.97 "
         id="polygon156" />
      <path
         class="cls-2"
         d="m 158.88,30.78 h 1.63 v -0.43 a 1.08,1.08 0 0 1 -1,-1.08 1.1,1.1 0 0 1 1,-1.08 v -0.42 h -1.63 z"
         transform="translate(-7.61,-5.68)"
         id="path158" />
      <path
         class="cls-2"
         d="m 158.88,40.83 h 1.63 v -0.42 a 1.08,1.08 0 0 1 0,-2.16 v -0.42 h -1.63 z"
         transform="translate(-7.61,-5.68)"
         id="path160" />
      <path
         class="cls-2"
         d="m 158.88,55.92 h 1.63 v -0.43 a 1.08,1.08 0 0 1 -1,-1.08 1.1,1.1 0 0 1 1,-1.08 v -0.42 h -1.63 z"
         transform="translate(-7.61,-5.68)"
         id="path162" />
      <path
         class="cls-2"
         d="m 158.88,45.86 h 1.63 v -0.42 a 1.1,1.1 0 0 1 -1,-1.08 1.08,1.08 0 0 1 1,-1.08 v -0.43 h -1.63 z"
         transform="translate(-7.61,-5.68)"
         id="path164" />
      <path
         class="cls-2"
         d="m 158.88,50.89 h 1.63 v -0.42 a 1.1,1.1 0 0 1 -1,-1.08 1.08,1.08 0 0 1 1,-1.08 v -0.43 h -1.63 z"
         transform="translate(-7.61,-5.68)"
         id="path166" />
    </g>
    <path
       class="cls-2"
       d="M 1046.7309,0.61313708"
       id="path170"
       style="stroke-width:10.569" />
    <path
       class="cls-2"
       d="m 1149.1441,-29.931133 h -91.8442 l -2.4309,7.186887 27.3736,9.406367 -1.5853,4.6503387 -27.3736,-9.4063667 -4.7561,13.9510158 11.2031,3.80482263 -1.5853,4.65033867 -11.2031,-3.80482254 -4.6503,13.42256844 16.8046,5.812924 -1.691,4.650338 -16.699,-5.812923 -4.6503,13.528258 11.0974,3.910512 -1.5854,4.650339 -11.2031,-3.910512 -4.6503,13.528258 27.4793,9.512056 -1.691,4.544649 -27.3736,-9.406367 -5.0731,13.1055 11.0974,3.804823 -1.5854,4.650339 -11.2031,-3.804823 -4.6503,13.528258 16.8046,5.707234 -1.5853,4.650339 -16.3819,-5.601545 -4.6503,13.422567 11.2031,3.91051 -1.5854,4.65034 -11.2031,-3.91051 -4.756,13.63395 27.4793,9.51205 -1.5854,4.65034 -27.4792,-9.51205 -4.65038,13.52826 11.20308,3.91051 -1.5853,4.65034 -11.20312,-3.91052 -4.75603,13.52826 16.91035,5.81293 -1.5854,4.65033 -16.91029,-5.81292 -4.65034,13.52826 11.30878,3.80482 -1.69103,4.65034 -11.20309,-3.80482 -4.65034,13.42257 27.47931,9.51205 -1.5854,4.65034 -27.58494,-9.51206 -4.65034,13.52826 11.30878,3.91051 -1.58535,4.65034 -11.30877,-4.22758 -4.65034,13.52826 16.91032,5.81292 -1.58534,4.65034 -16.91033,-5.81292 -4.75602,13.52826 11.30877,3.91051 -1.58534,4.65034 -11.30878,-3.91051 -4.65034,13.52825 27.58497,9.51206 -1.58534,4.65034 -27.58497,-9.51206 -7.71533,22.1948 h 75.14529 l 23.9915,-76.73059 h 113.8276 l 24.4143,77.15335 h 77.1533 z m -86.8768,187.387513 37.5198,-123.233977 h 2.5365 l 38.0482,123.233977 z"
       id="path172"
       style="stroke-width:10.569" />
  </g>
</svg>
